<svg width="14" height="12" viewBox="0 0 14 12" fill="none" xmlns="http://www.w3.org/2000/svg">
    <path d="M5.00732 1.9187C4.75868 1.9187 4.52023 2.01747 4.34441 2.19329C4.1686 2.3691 4.06982 2.60756 4.06982 2.8562C4.06982 3.10484 4.1686 3.3433 4.34441 3.51911C4.52023 3.69493 4.75868 3.7937 5.00732 3.7937C5.25596 3.7937 5.49442 3.69493 5.67024 3.51911C5.84605 3.3433 5.94482 3.10484 5.94482 2.8562C5.94482 2.60756 5.84605 2.3691 5.67024 2.19329C5.49442 2.01747 5.25596 1.9187 5.00732 1.9187ZM5.94482 0.0437012C6.77363 0.0437012 7.56848 0.372941 8.15453 0.958992C8.74058 1.54504 9.06982 2.3399 9.06982 3.1687C9.06982 4.2312 8.53857 5.1687 7.73232 5.7312C8.71982 5.82495 9.83232 6.04995 10.9448 6.6062C12.8198 7.5437 13.4448 6.2937 13.4448 6.2937C13.4448 6.2937 12.8198 11.9187 9.06982 11.9187H5.31982C5.31982 11.9187 2.19482 11.9187 2.19482 8.7937C2.19482 6.9187 4.06982 6.2937 3.44482 5.0437C0.944824 5.0437 0.944824 2.8562 0.944824 2.8562C1.56982 3.1687 2.34482 3.1687 2.81982 2.94995C2.87815 2.1607 3.23259 1.42265 3.81211 0.883696C4.39163 0.344742 5.15342 0.0447017 5.94482 0.0437012Z" fill="white"/>
</svg>
