<svg width="16" height="16" viewBox="0 0 16 16" fill="none" xmlns="http://www.w3.org/2000/svg">
    <g clip-path="url(#clip0)">
        <path d="M15.0099 5.4397C14.8473 5.05327 14.5772 4.77466 14.2286 4.63433L14.2239 4.63257C14.0652 4.57042 13.8963 4.53861 13.7259 4.53882H13.7071C12.9091 4.55083 12.0943 5.22905 11.6801 6.22661C11.3762 6.9561 11.3414 7.74067 11.5869 8.32544C11.7492 8.71216 12.0199 8.99077 12.37 9.1311L12.3738 9.13257C12.5325 9.19467 12.7014 9.22647 12.8719 9.22632C13.6775 9.22632 14.5008 8.5481 14.9226 7.53735C15.2226 6.80874 15.2557 6.02476 15.0099 5.4397Z" fill="white"/>
        <path d="M11.8213 9.74224C11.3611 9.46567 10.926 9.20405 10.6418 8.73413C9.85786 7.43335 9.38443 6.64819 8.14312 6.64819C6.90181 6.64819 6.4272 7.43335 5.64146 8.73413C5.35669 9.20464 4.92075 9.46655 4.45904 9.74429C3.92964 10.0625 3.38267 10.3912 3.14654 11.038C3.05474 11.2712 3.00849 11.5199 3.01031 11.7705C3.01031 12.8237 3.83062 13.6806 4.83843 13.6806C5.35845 13.6806 5.91187 13.5004 6.49751 13.3097C7.0606 13.1263 7.64273 12.9368 8.14605 12.9368C8.64937 12.9368 9.23003 13.1263 9.79107 13.3097C10.3755 13.4993 10.9263 13.6794 11.4478 13.6794C12.4542 13.6794 13.273 12.8225 13.273 11.7693C13.2738 11.5185 13.2266 11.2699 13.1338 11.0369C12.8977 10.3894 12.3504 10.0604 11.8213 9.74224Z" fill="white"/>
        <path d="M5.03757 5.61841C5.38621 6.05581 5.82859 6.29663 6.28328 6.29663C6.34535 6.29663 6.40734 6.29203 6.46873 6.28286C7.41707 6.14341 8.00799 4.98618 7.81404 3.64614C7.73289 3.08276 7.51609 2.55806 7.20554 2.16899C6.8575 1.73247 6.41453 1.49194 5.96013 1.49194C5.89806 1.49195 5.83608 1.49655 5.77468 1.50571C4.82634 1.64517 4.23543 2.80239 4.42937 4.14243C4.51023 4.70493 4.72703 5.22905 5.03757 5.61841Z" fill="white"/>
        <path d="M9.81765 6.28284C9.87904 6.292 9.94103 6.2966 10.0031 6.29661C10.4581 6.29661 10.9002 6.05579 11.2488 5.61838C11.5591 5.22903 11.7747 4.70491 11.8567 4.14182C12.0507 2.80237 11.4597 1.64514 10.5114 1.5051C10.45 1.49594 10.388 1.49133 10.326 1.49133C9.87156 1.49192 9.42859 1.73245 9.08054 2.16897C8.77 2.55803 8.5532 3.08274 8.47234 3.6467C8.2784 4.98616 8.86931 6.14338 9.81765 6.28284Z" fill="white"/>
        <path d="M3.91243 9.13257L3.91653 9.1311C4.26604 8.99077 4.53645 8.71245 4.69846 8.32603C4.94397 7.74009 4.9094 6.9564 4.60618 6.22691C4.18635 5.21734 3.3634 4.53882 2.55862 4.53882C2.38819 4.53857 2.21924 4.57038 2.06057 4.63257L2.05647 4.63403C1.70784 4.77319 1.43743 5.05269 1.27542 5.43911C1.02991 6.02505 1.06448 6.80874 1.3677 7.53823C1.78752 8.5478 2.61047 9.22632 3.41526 9.22632C3.58539 9.22646 3.75403 9.19465 3.91243 9.13257Z" fill="white"/>
    </g>
    <defs>
        <clipPath id="clip0">
            <rect width="15" height="15" fill="white" transform="translate(0.643066 0.0856934)"/>
        </clipPath>
    </defs>
</svg>
