<svg width="14" height="15" viewBox="0 0 14 15" fill="none" xmlns="http://www.w3.org/2000/svg">
    <path d="M10.738 2.4541C10.5719 2.4541 10.4095 2.50382 10.2713 2.59699C10.1332 2.69015 10.0255 2.82257 9.96194 2.9775C9.89836 3.13243 9.88173 3.30291 9.91414 3.46738C9.94655 3.63185 10.0266 3.78293 10.144 3.9015C10.2615 4.02008 10.4112 4.10083 10.5741 4.13355C10.7371 4.16626 10.906 4.14947 11.0595 4.0853C11.2129 4.02112 11.3441 3.91245 11.4364 3.77302C11.5287 3.63359 11.578 3.46966 11.578 3.30197C11.578 3.0771 11.4895 2.86144 11.332 2.70243C11.1744 2.54342 10.9608 2.4541 10.738 2.4541ZM13.958 4.16397C13.9444 3.57774 13.8356 2.99772 13.636 2.44703C13.458 1.97585 13.181 1.54919 12.824 1.19642C12.4774 0.834255 12.0537 0.556401 11.585 0.383876C11.0409 0.176261 10.4656 0.0639529 9.884 0.0517929C9.142 0.00939937 8.904 0.00939941 7 0.00939941C5.096 0.00939941 4.858 0.00939937 4.116 0.0517929C3.53441 0.0639529 2.95914 0.176261 2.415 0.383876C1.94717 0.558148 1.52385 0.835764 1.176 1.19642C0.817198 1.54629 0.541924 1.97395 0.371 2.44703C0.165313 2.99627 0.054047 3.57693 0.042 4.16397C-3.91155e-08 4.91292 0 5.15315 0 7.075C0 8.99684 -3.91155e-08 9.23707 0.042 9.98602C0.054047 10.5731 0.165313 11.1537 0.371 11.703C0.541924 12.176 0.817198 12.6037 1.176 12.9536C1.52385 13.3142 1.94717 13.5918 2.415 13.7661C2.95914 13.9737 3.53441 14.086 4.116 14.0982C4.858 14.1406 5.096 14.1406 7 14.1406C8.904 14.1406 9.142 14.1406 9.884 14.0982C10.4656 14.086 11.0409 13.9737 11.585 13.7661C12.0537 13.5936 12.4774 13.3157 12.824 12.9536C13.1826 12.6021 13.4598 12.1751 13.636 11.703C13.8356 11.1523 13.9444 10.5723 13.958 9.98602C13.958 9.23707 14 8.99684 14 7.075C14 5.15315 14 4.91292 13.958 4.16397ZM12.698 9.90123C12.6929 10.3497 12.6124 10.7941 12.46 11.2154C12.3482 11.5229 12.1687 11.8008 11.935 12.028C11.708 12.2615 11.4333 12.4423 11.13 12.5579C10.7126 12.7118 10.2723 12.793 9.828 12.7981C9.128 12.8335 8.869 12.8405 7.028 12.8405C5.187 12.8405 4.928 12.8405 4.228 12.7981C3.76662 12.8068 3.30722 12.7351 2.87 12.5862C2.58005 12.4647 2.31795 12.2843 2.1 12.0562C1.86766 11.8293 1.69039 11.5512 1.582 11.2437C1.4111 10.8163 1.31631 10.3619 1.302 9.90123C1.302 9.19467 1.26 8.93325 1.26 7.075C1.26 5.21674 1.26 4.95532 1.302 4.24876C1.30514 3.79024 1.38807 3.33584 1.547 2.90629C1.67023 2.60806 1.85939 2.34222 2.1 2.12908C2.31267 1.88614 2.5755 1.6932 2.87 1.56383C3.29669 1.40842 3.7464 1.32719 4.2 1.3236C4.9 1.3236 5.159 1.28121 7 1.28121C8.841 1.28121 9.1 1.28121 9.8 1.3236C10.2443 1.32874 10.6846 1.40997 11.102 1.56383C11.4201 1.68299 11.7056 1.87673 11.935 2.12908C12.1644 2.34612 12.3436 2.61147 12.46 2.90629C12.6156 3.33654 12.6961 3.79075 12.698 4.24876C12.733 4.95532 12.74 5.21674 12.74 7.075C12.74 8.93325 12.733 9.19467 12.698 9.90123ZM7 3.45034C6.29007 3.45174 5.59647 3.66551 5.00686 4.06464C4.41724 4.46377 3.95806 5.03035 3.68734 5.69279C3.41662 6.35523 3.34651 7.0838 3.48586 7.78645C3.6252 8.4891 3.96777 9.13429 4.47025 9.6405C4.97274 10.1467 5.61261 10.4912 6.309 10.6305C7.0054 10.7698 7.72707 10.6976 8.38283 10.4231C9.03859 10.1485 9.59901 9.68392 9.99329 9.08801C10.3876 8.49209 10.598 7.79158 10.598 7.075C10.5989 6.59814 10.5064 6.12581 10.3259 5.68516C10.1453 5.24451 9.88019 4.84425 9.54581 4.50739C9.21143 4.17053 8.81436 3.90373 8.37746 3.72232C7.94055 3.54091 7.47242 3.44848 7 3.45034ZM7 9.42784C6.53897 9.42784 6.0883 9.28985 5.70497 9.03131C5.32163 8.77278 5.02286 8.40531 4.84644 7.97539C4.67001 7.54546 4.62385 7.07238 4.71379 6.61598C4.80373 6.15957 5.02574 5.74033 5.35173 5.41128C5.67773 5.08223 6.09307 4.85815 6.54524 4.76736C6.99741 4.67658 7.4661 4.72317 7.89204 4.90125C8.31797 5.07933 8.68202 5.3809 8.93816 5.76783C9.19429 6.15475 9.331 6.60965 9.331 7.075C9.331 7.38397 9.27071 7.68993 9.15356 7.97539C9.03642 8.26085 8.86472 8.52022 8.64827 8.73871C8.43181 8.95719 8.17484 9.1305 7.89204 9.24874C7.60922 9.36698 7.30611 9.42784 7 9.42784Z" fill="white"/>
</svg>
